<?xml version="1.0" encoding="UTF-8" standalone="no"?>
<!-- Created with Inkscape (http://www.inkscape.org/) -->

<svg
   width="295.70108"
   height="70.342606"
   viewBox="0 0 78.237576 18.611481"
   version="1.1"
   id="svg5"
   inkscape:version="1.2.2 (732a01da63, 2022-12-09)"
   sodipodi:docname="prc_news.svg"
   xmlns:inkscape="http://www.inkscape.org/namespaces/inkscape"
   xmlns:sodipodi="http://sodipodi.sourceforge.net/DTD/sodipodi-0.dtd"
   xmlns:xlink="http://www.w3.org/1999/xlink"
   xmlns="http://www.w3.org/2000/svg"
   xmlns:svg="http://www.w3.org/2000/svg">
  <sodipodi:namedview
     id="namedview7"
     pagecolor="#ffffff"
     bordercolor="#000000"
     borderopacity="0.25"
     inkscape:showpageshadow="2"
     inkscape:pageopacity="0.0"
     inkscape:pagecheckerboard="0"
     inkscape:deskcolor="#d1d1d1"
     inkscape:document-units="px"
     showgrid="false"
     showguides="true"
     inkscape:zoom="1.4142136"
     inkscape:cx="395.62624"
     inkscape:cy="662.55905"
     inkscape:window-width="1920"
     inkscape:window-height="1017"
     inkscape:window-x="-8"
     inkscape:window-y="-8"
     inkscape:window-maximized="1"
     inkscape:current-layer="layer1" />
  <defs
     id="defs2">
    <linearGradient
       inkscape:collect="always"
       id="linearGradient16415">
      <stop
         style="stop-color:#244aa5;stop-opacity:1"
         offset="0"
         id="stop16411" />
      <stop
         style="stop-color:#1f418f;stop-opacity:1;"
         offset="1"
         id="stop16413" />
    </linearGradient>
    <linearGradient
       inkscape:collect="always"
       id="linearGradient2398">
      <stop
         style="stop-color:#cfa24f;stop-opacity:1;"
         offset="0"
         id="stop2394" />
      <stop
         style="stop-color:#c79d3a;stop-opacity:1;"
         offset="0.48025218"
         id="stop3168" />
      <stop
         style="stop-color:#a8802c;stop-opacity:1;"
         offset="1"
         id="stop2396" />
    </linearGradient>
    <linearGradient
       inkscape:collect="always"
       id="linearGradient1238">
      <stop
         style="stop-color:#f2f2f2;stop-opacity:1;"
         offset="0"
         id="stop1234" />
      <stop
         style="stop-color:#e5e5e5;stop-opacity:1;"
         offset="1"
         id="stop1236" />
    </linearGradient>
    <inkscape:path-effect
       effect="powerstroke"
       id="path-effect15028"
       is_visible="true"
       lpeversion="1"
       offset_points="0,0.0045863798"
       not_jump="false"
       sort_points="true"
       interpolator_type="CubicBezierJohan"
       interpolator_beta="0.2"
       start_linecap_type="zerowidth"
       linejoin_type="extrp_arc"
       miter_limit="4"
       scale_width="1"
       end_linecap_type="zerowidth" />
    <inkscape:path-effect
       effect="powerstroke"
       id="path-effect15024"
       is_visible="true"
       lpeversion="1"
       offset_points="0,0.0040862432"
       not_jump="false"
       sort_points="true"
       interpolator_type="CubicBezierJohan"
       interpolator_beta="0.2"
       start_linecap_type="zerowidth"
       linejoin_type="extrp_arc"
       miter_limit="4"
       scale_width="1"
       end_linecap_type="zerowidth" />
    <inkscape:path-effect
       effect="powerstroke"
       id="path-effect15020"
       is_visible="true"
       lpeversion="1"
       offset_points="0,0.0036418445"
       not_jump="false"
       sort_points="true"
       interpolator_type="CubicBezierJohan"
       interpolator_beta="0.2"
       start_linecap_type="zerowidth"
       linejoin_type="extrp_arc"
       miter_limit="4"
       scale_width="1"
       end_linecap_type="zerowidth" />
    <inkscape:path-effect
       effect="powerstroke"
       id="path-effect15010"
       is_visible="true"
       lpeversion="1"
       offset_points="0,0.00341552"
       not_jump="false"
       sort_points="true"
       interpolator_type="CubicBezierJohan"
       interpolator_beta="0.2"
       start_linecap_type="zerowidth"
       linejoin_type="extrp_arc"
       miter_limit="4"
       scale_width="1"
       end_linecap_type="zerowidth" />
    <inkscape:path-effect
       effect="powerstroke"
       id="path-effect14942"
       is_visible="true"
       lpeversion="1"
       offset_points="0.032712527,0.0043848287"
       not_jump="false"
       sort_points="true"
       interpolator_type="CubicBezierJohan"
       interpolator_beta="0.2"
       start_linecap_type="zerowidth"
       linejoin_type="extrp_arc"
       miter_limit="4"
       scale_width="1"
       end_linecap_type="zerowidth" />
    <inkscape:path-effect
       effect="powerstroke"
       id="path-effect14567"
       is_visible="true"
       lpeversion="1"
       offset_points="0,0.0036420111"
       not_jump="false"
       sort_points="true"
       interpolator_type="CubicBezierJohan"
       interpolator_beta="0.2"
       start_linecap_type="zerowidth"
       linejoin_type="extrp_arc"
       miter_limit="4"
       scale_width="1"
       end_linecap_type="zerowidth" />
    <radialGradient
       inkscape:collect="always"
       xlink:href="#linearGradient2398"
       id="radialGradient7445"
       gradientUnits="userSpaceOnUse"
       gradientTransform="matrix(1,0,0,1.7670501,755.84648,-12.429813)"
       cx="-596.84326"
       cy="84.498573"
       fx="-596.84326"
       fy="84.498573"
       r="5.2662649" />
    <radialGradient
       inkscape:collect="always"
       xlink:href="#linearGradient16415"
       id="radialGradient16419"
       cx="140.66786"
       cy="136.88341"
       fx="140.66786"
       fy="136.88341"
       r="15.43373"
       gradientTransform="matrix(1,0,0,0.5154334,0,66.329123)"
       gradientUnits="userSpaceOnUse" />
    <radialGradient
       inkscape:collect="always"
       xlink:href="#linearGradient1238"
       id="radialGradient16713"
       cx="182.33504"
       cy="136.88341"
       fx="182.33504"
       fy="136.88341"
       r="21.136696"
       gradientTransform="matrix(1.1183894,0.03499267,-0.01667138,0.53282819,-19.304509,57.567674)"
       gradientUnits="userSpaceOnUse" />
    <radialGradient
       inkscape:collect="always"
       xlink:href="#linearGradient1238"
       id="radialGradient18959"
       gradientUnits="userSpaceOnUse"
       gradientTransform="matrix(1.1183894,0.03499267,-0.01667138,0.53282819,-19.304509,57.567674)"
       cx="182.33504"
       cy="136.88341"
       fx="182.33504"
       fy="136.88341"
       r="21.136696" />
    <radialGradient
       inkscape:collect="always"
       xlink:href="#linearGradient1238"
       id="radialGradient18961"
       gradientUnits="userSpaceOnUse"
       gradientTransform="matrix(1.1183894,0.03499267,-0.01667138,0.53282819,-19.304509,57.567674)"
       cx="182.33504"
       cy="136.88341"
       fx="182.33504"
       fy="136.88341"
       r="21.136696" />
    <radialGradient
       inkscape:collect="always"
       xlink:href="#linearGradient1238"
       id="radialGradient18963"
       gradientUnits="userSpaceOnUse"
       gradientTransform="matrix(1.1183894,0.03499267,-0.01667138,0.53282819,-19.304509,57.567674)"
       cx="182.33504"
       cy="136.88341"
       fx="182.33504"
       fy="136.88341"
       r="21.136696" />
    <radialGradient
       inkscape:collect="always"
       xlink:href="#linearGradient1238"
       id="radialGradient18965"
       gradientUnits="userSpaceOnUse"
       gradientTransform="matrix(1.1183894,0.03499267,-0.01667138,0.53282819,-19.304509,57.567674)"
       cx="182.33504"
       cy="136.88341"
       fx="182.33504"
       fy="136.88341"
       r="21.136696" />
    <radialGradient
       inkscape:collect="always"
       xlink:href="#linearGradient16415"
       id="radialGradient18967"
       gradientUnits="userSpaceOnUse"
       gradientTransform="matrix(1,0,0,0.5154334,0,66.329123)"
       cx="140.66786"
       cy="136.88341"
       fx="140.66786"
       fy="136.88341"
       r="15.43373" />
    <radialGradient
       inkscape:collect="always"
       xlink:href="#linearGradient16415"
       id="radialGradient18969"
       gradientUnits="userSpaceOnUse"
       gradientTransform="matrix(1,0,0,0.5154334,0,66.329123)"
       cx="140.66786"
       cy="136.88341"
       fx="140.66786"
       fy="136.88341"
       r="15.43373" />
    <radialGradient
       inkscape:collect="always"
       xlink:href="#linearGradient16415"
       id="radialGradient18971"
       gradientUnits="userSpaceOnUse"
       gradientTransform="matrix(1,0,0,0.5154334,0,66.329123)"
       cx="140.66786"
       cy="136.88341"
       fx="140.66786"
       fy="136.88341"
       r="15.43373" />
  </defs>
  <g
     inkscape:label="Layer 1"
     inkscape:groupmode="layer"
     id="layer1"
     transform="translate(-125.23413,-127.57765)">
    <g
       id="g16743">
      <g
         id="g16709"
         style="fill:url(#radialGradient16713);fill-opacity:1">
        <path
           style="fill:url(#radialGradient18959);fill-opacity:1;stroke-width:0.0861911"
           d="m 182.94817,128.92835 v 15.91011 h 2.03958 1.74072 2.03958 3.7803 v -2.03958 -13.87053 h -2.03958 v 13.87053 h -1.74072 v -7.56059 h -2.03958 v 7.56059 h -1.74072 v -13.87053 z"
           id="rect1864" />
        <path
           id="path1073"
           style="fill:url(#radialGradient18961);fill-opacity:1;stroke-width:0.1342"
           d="m 161.19833,128.92834 v 9.35889 6.55123 h 2.03958 v -6.55123 -1.43856 l 2.37226,3.49405 3.05242,4.49574 h 2.03959 v -6.55123 -9.35889 h -2.03959 v 9.35889 2.92027 l -1.36489,-2.01033 -4.05979,-5.97964 v -4.28919 z" />
        <path
           id="path1079"
           style="fill:url(#radialGradient18963);fill-opacity:1;stroke-width:0.1342"
           d="m 172.02508,128.92834 v 2.03959 4.89568 2.03958 0.38404 4.51165 2.03958 h 2.03958 7.5606 v -2.03958 h -7.5606 v -4.51165 -0.38404 h 7.5606 v -2.03958 h -7.5606 v -4.89569 h 7.5606 v -2.03958 h -7.5606 z" />
        <path
           id="rect1825"
           style="fill:url(#radialGradient18965);fill-opacity:1;stroke-width:0.142269"
           d="m 193.87127,128.92847 v 2.03967 5.9154 0.99633 h 7.56078 v 4.87205 h -7.56078 v 2.03967 h 7.56078 2.03967 v -2.03967 -5.9154 -0.99632 h -7.56078 v -4.87206 h 7.56078 v -2.03967 h -7.56078 z" />
      </g>
      <g
         id="g16409"
         style="fill:url(#radialGradient16419);fill-opacity:1">
        <path
           id="rect746"
           style="fill:url(#radialGradient18967);fill-opacity:1;stroke-width:0.353764;stroke-dasharray:none"
           d="m 135.91591,128.92834 v 9.3589 6.55122 h 2.03958 v -1.42778 -3.69567 -1.42777 h 1.75022 l 3.30651,6.55122 h 2.26258 l -3.29115,-6.55122 3.29115,-1e-5 v -9.35889 z m 2.03958,2.03958 h 5.27973 v 5.27974 h -5.27973 z" />
        <path
           id="rect661"
           style="fill:url(#radialGradient18969);fill-opacity:1;stroke-width:0.353764;stroke-dasharray:none"
           d="m 125.23413,128.92834 v 9.3589 6.55122 h 2.03958 v -1.42778 -3.69567 -1.42777 h 7.31931 v -9.3589 z m 2.03958,2.03958 h 5.27973 v 5.27974 h -5.27973 z" />
        <path
           id="rect667"
           style="fill:url(#radialGradient18971);fill-opacity:1;stroke-width:0.353764;stroke-dasharray:none"
           d="m 146.59774,128.92834 v 9.3589 6.55122 h 0.10438 1.9352 1.93521 5.52906 v -2.03958 h -5.52906 -1.93521 v -4.51164 -7.31932 h 1.93521 5.52906 v -2.03958 h -5.52906 -1.93521 z" />
      </g>
      <path
         id="path1950"
         style="fill:url(#radialGradient7445);fill-opacity:1;stroke-width:1.00012;stroke-dasharray:none"
         d="m 159.00324,127.57765 c -0.29452,0 -0.95216,0.29775 -1.32206,0.61249 -0.40016,0.34047 -0.65804,0.83085 -0.88304,1.30564 -0.20698,0.43677 -0.3907,0.32813 -0.4152,1.11211 -0.0245,0.78398 -0.0735,0.66939 -0.2695,1.11038 -0.19599,0.44099 0.72916,1.44547 1.07797,2.27845 0.34881,0.83298 -0.28619,0.84453 -1.07797,1.30386 -2.66233,1.54448 -1.37753,1.79757 -1.25286,2.35472 0.12467,0.55714 -0.36968,0.34296 -0.19601,0.90645 0.15436,0.50082 1.37157,1.07909 1.7266,1.66593 -0.0244,0.0104 -0.41305,0.46503 -0.32675,0.93105 0.12249,0.66148 -0.58798,0.4165 -0.44098,0.90649 0.14699,0.48999 -0.93098,1.24947 -1.39646,2.35194 -0.46549,1.10247 -0.49001,1.73945 -0.49001,1.73945 h 0.8085 c 0,0 1.00331,0.0773 1.80963,-0.71366 0.8477,-0.83154 1.02592,0.59204 1.59578,0.71366 0.34306,0.0732 1.05236,0 1.05236,0 0,0 0.70929,0.0732 1.05235,0 0.56986,-0.12162 0.74809,-1.5452 1.59579,-0.71366 0.80631,0.79095 1.80962,0.71366 1.80962,0.71366 h 0.8085 c 0,0 -0.0245,-0.63698 -0.49,-1.73945 -0.46549,-1.10247 -1.54346,-1.86195 -1.39646,-2.35194 0.14699,-0.48999 -0.56348,-0.24501 -0.44098,-0.90649 0.0863,-0.46602 -0.30234,-0.92063 -0.32675,-0.93105 0.35502,-0.58684 1.57223,-1.16511 1.72659,-1.66593 0.17367,-0.56349 -0.32068,-0.34931 -0.19601,-0.90645 0.12468,-0.55715 1.40947,-0.81024 -1.25286,-2.35472 -0.79178,-0.45933 -1.42677,-0.47088 -1.07797,-1.30386 0.34881,-0.83298 1.27397,-1.83746 1.07797,-2.27845 -0.19599,-0.44099 -0.245,-0.3264 -0.2695,-1.11038 -0.0245,-0.78398 -0.20822,-0.67534 -0.4152,-1.11211 -0.22499,-0.47479 -0.48288,-0.96517 -0.88304,-1.30564 -0.3699,-0.31474 -1.02754,-0.61249 -1.32205,-0.61249 z m -2.69582,9.58398 c 0.13598,-0.006 0.38593,0.17383 0.81388,0.67147 0.56669,0.65897 0.52895,1.18641 0.29068,1.5788 -0.007,-0.001 -0.0154,-0.002 -0.025,-0.002 0,0 -0.79582,-0.14197 -1.00401,-0.88094 -0.12223,-0.43386 -0.37468,-1.35251 -0.0755,-1.36682 z m 5.39163,0 c 0.29916,0.0143 0.0467,0.93297 -0.0755,1.36683 -0.20819,0.73897 -1.004,0.88094 -1.004,0.88094 -0.01,0 -0.0176,0.001 -0.025,0.002 -0.23827,-0.3924 -0.27601,-0.91983 0.29068,-1.5788 0.42795,-0.49765 0.6779,-0.67798 0.81388,-0.67147 z" />
      <path
         id="path4314"
         style="fill:#745b1f;fill-opacity:1;stroke-width:1.00012;stroke-dasharray:none"
         d="m 157.51234,130.91992 c -0.34701,-10e-4 -0.64514,0.0814 -0.64514,0.0814 -0.31855,0.30613 0.67772,0.89022 1.70568,0.83022 -0.0177,-0.74908 -0.58501,-0.90954 -1.06054,-0.91159 z m 2.98873,0 c -0.47553,0.002 -1.04287,0.16251 -1.06058,0.9116 1.02797,0.06 2.02427,-0.5241 1.70572,-0.83022 0,0 -0.29813,-0.0829 -0.64514,-0.0814 z" />
      <circle
         style="fill:#745b1f;fill-opacity:1;stroke-width:1.00012;stroke-dasharray:none"
         id="path14555"
         cx="159.00319"
         cy="136.81213"
         r="0.25724533" />
      <path
         style="fill:#745b1f;fill-opacity:1;fill-rule:nonzero;stroke:none;stroke-width:15.2747;stroke-dasharray:none"
         d="m 120.11092,530.95762 c 0,0 -0.003,0.001 -0.003,0.001 0.37257,0.89919 0.96467,2.31734 1.56709,3.593 0.47948,1.01532 0.9907,2.00131 1.60573,3.02729 0.6172,1.0296 1.29672,2.02919 2.07809,3.08433 1.01782,1.37442 2.16756,2.781 2.98435,3.76438 -0.81679,-0.98338 -1.96608,-2.39035 -2.98319,-3.76524 -0.78084,-1.05551 -1.45968,-2.05544 -2.07613,-3.08534 -0.61426,-1.02625 -1.12474,-2.01247 -1.60356,-3.02792 -0.60132,-1.27523 -1.19335,-2.69473 -1.56566,-3.59328 z"
         id="path14563"
         inkscape:path-effect="#path-effect14567"
         inkscape:original-d="m 120.11092,530.95762 c 2.25596,5.44466 3.45613,7.72054 8.2319,13.47039"
         inkscape:linked-fill="path12961"
         class="UnoptimicedTransforms"
         sodipodi:nodetypes="cc"
         transform="matrix(0.06547579,0,0,0.06547579,148.79532,100.44485)" />
      <path
         style="fill:#745b1f;fill-opacity:1;stroke-width:1.00012;stroke-dasharray:none"
         d="m 161.38575,132.50869 c 0,0 -1.54428,2.30867 -2.26386,1.64976 0,0 0.25661,0.40889 2.26386,-1.64976 z"
         id="path14577" />
      <path
         style="fill:#745b1f;fill-opacity:1;stroke-width:1.00012;stroke-dasharray:none"
         d="m 156.62474,132.44763 c 0,0 1.66492,2.73404 2.5258,2.01064 0,0 -0.31553,0.45822 -2.5258,-2.01064 z"
         id="path14579" />
      <path
         style="fill:#745b1f;fill-opacity:1;stroke-width:1.00012;stroke-dasharray:none"
         d="m 161.72464,143.08039 c 0,0 -5.45835,1.31303 -5.62422,-0.65207 0,0 -0.17921,0.95913 5.62422,0.65207 z"
         id="path14926" />
      <path
         style="fill:#745b1f;fill-opacity:1;stroke-width:1.00012;stroke-dasharray:none"
         d="m 156.09982,141.78191 c 0,0 5.45834,1.31303 5.62421,-0.65207 0,0 0.17921,0.95913 -5.62421,0.65207 z"
         id="path14928" />
      <path
         style="fill:#745b1f;fill-opacity:1;stroke-width:1.00012;stroke-dasharray:none"
         d="m 157.27525,134.70233 c 0,0 2.04627,1.19018 1.52426,1.83747 0,0 0.33408,-0.24013 -1.52426,-1.83747 z"
         id="path14930" />
      <path
         style="fill:#745b1f;fill-opacity:1;stroke-width:1.00012;stroke-dasharray:none"
         d="m 160.60445,134.912 c 0,0 -1.7157,0.99791 -1.27802,1.54063 0,0 -0.28011,-0.20134 1.27802,-1.54063 z"
         id="path14932" />
      <path
         style="fill:#745b1f;fill-opacity:1;stroke-width:1.00012;stroke-dasharray:none"
         d="m 160.22819,135.91086 c 0,0 2.5921,1.98787 3.14462,0.98216 0,0 -0.13133,0.55234 -3.14462,-0.98216 z"
         id="path14934" />
      <path
         style="fill:#745b1f;fill-opacity:1;stroke-width:1.00012;stroke-dasharray:none"
         d="m 157.83591,135.91086 c 0,0 -2.59211,1.98787 -3.14462,0.98216 0,0 0.13133,0.55234 3.14462,-0.98216 z"
         id="path14936" />
      <path
         style="fill:#745b1f;fill-opacity:1;fill-rule:nonzero;stroke:none;stroke-width:15.2747;stroke-dasharray:none"
         d="m 120.11092,530.95762 c 0.0443,0.10687 0.1711,0.42314 0.21412,0.52608 0.3233,0.77356 0.82206,1.95304 1.34896,3.06862 0.47342,1.00235 0.98494,1.9914 1.60598,3.02722 0.61516,1.02602 1.29385,2.02499 2.07834,3.0842 1.01861,1.37531 2.17299,2.78725 2.9845,3.76427 -0.81151,-0.97702 -1.96532,-2.38946 -2.98304,-3.76535 -0.78381,-1.05968 -1.46165,-2.05909 -2.07588,-3.08547 -0.62008,-1.03615 -1.13068,-2.02549 -1.60331,-3.02798 -0.52579,-1.11523 -1.02439,-2.2959 -1.34746,-3.0689 -0.043,-0.10293 -0.17793,-0.41582 -0.22221,-0.52269 z"
         id="path14938"
         inkscape:path-effect="#path-effect14942"
         inkscape:original-d="m 120.11092,530.95762 c 2.25596,5.44466 3.45613,7.72054 8.2319,13.47039"
         inkscape:linked-fill="path12961"
         class="UnoptimicedTransforms"
         sodipodi:nodetypes="cc"
         transform="matrix(0.06547579,0,0,0.06547579,147.40075,101.17245)" />
      <path
         style="fill:#745b1f;fill-opacity:1;stroke-width:1.00012;stroke-dasharray:none"
         d="m 163.11928,138.25156 c 0,0 -2.1904,0.89772 -1.76229,1.6106 0,0 -0.29792,-0.28376 1.76229,-1.6106 z"
         id="path14962" />
      <path
         style="fill:#745b1f;fill-opacity:1;stroke-width:1.00012;stroke-dasharray:none"
         d="m 154.85814,138.25156 c 0,0 2.19039,0.89772 1.76228,1.6106 0,0 0.29792,-0.28376 -1.76228,-1.6106 z"
         id="path14964" />
      <path
         style="fill:#745b1f;fill-opacity:1;fill-rule:nonzero;stroke:none;stroke-width:15.2747;stroke-dasharray:none"
         d="m 120.11092,530.95762 c 0,0 -0.003,0.001 -0.003,0.001 0.37257,0.89917 0.96467,2.31735 1.56706,3.593 0.47945,1.01533 0.99065,2.00132 1.60566,3.02732 0.61717,1.02961 1.29668,2.0292 2.07803,3.08435 1.01779,1.37444 2.16752,2.78103 2.98431,3.76441 -0.81679,-0.98338 -1.9661,-2.39033 -2.98323,-3.76521 -0.78085,-1.0555 -1.45971,-2.05542 -2.07618,-3.08531 -0.61429,-1.02624 -1.1248,-2.01246 -1.60364,-3.0279 -0.60135,-1.27524 -1.19338,-2.69471 -1.56569,-3.59328 z"
         id="path15006"
         inkscape:path-effect="#path-effect15010"
         inkscape:original-d="m 120.11092,530.95762 c 2.25596,5.44466 3.45613,7.72054 8.2319,13.47039"
         inkscape:linked-fill="path12961"
         class="UnoptimicedTransforms"
         sodipodi:nodetypes="cc"
         transform="matrix(0.06547579,0,0,0.06547579,148.11969,100.82597)" />
      <path
         style="fill:#745b1f;fill-opacity:1;fill-rule:nonzero;stroke:none;stroke-width:15.2747;stroke-dasharray:none"
         d="m 120.11092,530.95762 c 0,0 -0.003,0.001 -0.003,0.001 0.37257,0.89919 0.96467,2.31734 1.56709,3.593 0.47948,1.01532 0.9907,2.00131 1.60573,3.02729 0.6172,1.0296 1.29672,2.02919 2.07809,3.08433 1.01782,1.37442 2.16756,2.781 2.98435,3.76438 -0.81679,-0.98338 -1.96608,-2.39035 -2.98319,-3.76524 -0.78084,-1.05551 -1.45968,-2.05544 -2.07613,-3.08534 -0.61426,-1.02625 -1.12474,-2.01247 -1.60356,-3.02792 -0.60132,-1.27523 -1.19335,-2.69473 -1.56566,-3.59328 z"
         id="path15012"
         inkscape:path-effect="#path-effect15020"
         inkscape:original-d="m 120.11092,530.95762 c 2.25596,5.44466 3.45613,7.72054 8.2319,13.47039"
         inkscape:linked-fill="path12961"
         class="UnoptimicedTransforms"
         sodipodi:nodetypes="cc"
         transform="matrix(-0.06547579,0,0,0.06547579,169.21172,100.44485)" />
      <path
         style="fill:#745b1f;fill-opacity:1;fill-rule:nonzero;stroke:none;stroke-width:15.2747;stroke-dasharray:none"
         d="m 120.11092,530.95762 c 0,0 -0.004,0.002 -0.004,0.002 0.37259,0.89923 0.9647,2.31729 1.56719,3.59298 0.47952,1.01532 0.99078,2.00129 1.60586,3.02726 0.61724,1.02958 1.29681,2.02914 2.07821,3.08426 1.01786,1.3744 2.16763,2.78095 2.98442,3.76433 -0.81679,-0.98338 -1.96606,-2.39037 -2.98312,-3.76529 -0.7808,-1.05553 -1.4596,-2.05549 -2.07601,-3.0854 -0.61422,-1.02627 -1.12465,-2.0125 -1.60343,-3.02796 -0.60125,-1.2752 -1.19327,-2.69479 -1.56556,-3.5933 z"
         id="path15014"
         inkscape:path-effect="#path-effect15024"
         inkscape:original-d="m 120.11092,530.95762 c 2.25596,5.44466 3.45613,7.72054 8.2319,13.47039"
         inkscape:linked-fill="path12961"
         class="UnoptimicedTransforms"
         sodipodi:nodetypes="cc"
         transform="matrix(-0.06547579,0,0,0.06547579,170.60629,101.17245)" />
      <path
         style="fill:#745b1f;fill-opacity:1;fill-rule:nonzero;stroke:none;stroke-width:15.2747;stroke-dasharray:none"
         d="m 120.11092,530.95762 c 0,0 -0.004,0.002 -0.004,0.002 0.37261,0.89927 0.96472,2.31724 1.56729,3.59295 0.47956,1.01531 0.99088,2.00127 1.606,3.02722 0.6173,1.02956 1.29691,2.02909 2.07835,3.08419 1.01791,1.37436 2.16771,2.78089 2.9845,3.76427 -0.81679,-0.98338 -1.96602,-2.3904 -2.98304,-3.76535 -0.78077,-1.05556 -1.45952,-2.05553 -2.07587,-3.08547 -0.61417,-1.02628 -1.12455,-2.01254 -1.60329,-3.028 -0.60117,-1.27517 -1.19319,-2.69486 -1.56546,-3.59333 0,0 -0.004,0.002 -0.004,0.002 z"
         id="path15016"
         inkscape:path-effect="#path-effect15028"
         inkscape:original-d="m 120.11092,530.95762 c 2.25596,5.44466 3.45613,7.72054 8.2319,13.47039"
         inkscape:linked-fill="path12961"
         class="UnoptimicedTransforms"
         sodipodi:nodetypes="cc"
         transform="matrix(-0.06547579,0,0,0.06547579,169.88735,100.82597)" />
    </g>
  </g>
</svg>
