<?xml version="1.0" encoding="UTF-8" standalone="no"?>
<!-- Created with Inkscape (http://www.inkscape.org/) -->

<svg
   width="295.70114"
   height="70.342659"
   viewBox="0 0 78.237592 18.611495"
   version="1.1"
   id="svg5"
   inkscape:version="1.2.2 (732a01da63, 2022-12-09)"
   sodipodi:docname="prc_news.svg"
   xmlns:inkscape="http://www.inkscape.org/namespaces/inkscape"
   xmlns:sodipodi="http://sodipodi.sourceforge.net/DTD/sodipodi-0.dtd"
   xmlns="http://www.w3.org/2000/svg"
   xmlns:svg="http://www.w3.org/2000/svg">
  <sodipodi:namedview
     id="namedview7"
     pagecolor="#ffffff"
     bordercolor="#000000"
     borderopacity="0.25"
     inkscape:showpageshadow="2"
     inkscape:pageopacity="0.0"
     inkscape:pagecheckerboard="0"
     inkscape:deskcolor="#d1d1d1"
     inkscape:document-units="px"
     showgrid="false"
     showguides="true"
     inkscape:zoom="1.4142136"
     inkscape:cx="395.62624"
     inkscape:cy="662.55905"
     inkscape:window-width="1920"
     inkscape:window-height="1017"
     inkscape:window-x="-8"
     inkscape:window-y="-8"
     inkscape:window-maximized="1"
     inkscape:current-layer="layer1" />
  <defs
     id="defs2" />
  <g
     inkscape:label="Layer 1"
     inkscape:groupmode="layer"
     id="layer1"
     transform="translate(-125.15071,-168.57989)">
    <g
       id="g17365"
       transform="translate(-0.083425,0.40399546)">
      <g
         id="g17136"
         style="fill:#f2f2f2;fill-opacity:1"
         transform="translate(0,40.59824)">
        <path
           style="fill:#f2f2f2;fill-opacity:1;stroke-width:0.0861911"
           d="m 182.94817,128.92835 v 15.91011 h 2.03958 1.74072 2.03958 3.7803 v -2.03958 -13.87053 h -2.03958 v 13.87053 h -1.74072 v -7.56059 h -2.03958 v 7.56059 h -1.74072 v -13.87053 z"
           id="path17128" />
        <path
           id="path17130"
           style="fill:#f2f2f2;fill-opacity:1;stroke-width:0.1342"
           d="m 161.19833,128.92834 v 9.35889 6.55123 h 2.03958 v -6.55123 -1.43856 l 2.37226,3.49405 3.05242,4.49574 h 2.03959 v -6.55123 -9.35889 h -2.03959 v 9.35889 2.92027 l -1.36489,-2.01033 -4.05979,-5.97964 v -4.28919 z" />
        <path
           id="path17132"
           style="fill:#f2f2f2;fill-opacity:1;stroke-width:0.1342"
           d="m 172.02508,128.92834 v 2.03959 4.89568 2.03958 0.38404 4.51165 2.03958 h 2.03958 7.5606 v -2.03958 h -7.5606 v -4.51165 -0.38404 h 7.5606 v -2.03958 h -7.5606 v -4.89569 h 7.5606 v -2.03958 h -7.5606 z" />
        <path
           id="path17134"
           style="fill:#f2f2f2;fill-opacity:1;stroke-width:0.142269"
           d="m 193.87127,128.92847 v 2.03967 5.9154 0.99633 h 7.56078 v 4.87205 h -7.56078 v 2.03967 h 7.56078 2.03967 v -2.03967 -5.9154 -0.99632 h -7.56078 v -4.87206 h 7.56078 v -2.03967 h -7.56078 z" />
      </g>
      <g
         id="g17144"
         style="fill:#f2f2f2;fill-opacity:1"
         transform="translate(0,40.59824)">
        <path
           id="path17138"
           style="fill:#f2f2f2;fill-opacity:1;stroke-width:0.353764;stroke-dasharray:none"
           d="m 135.91591,128.92834 v 9.3589 6.55122 h 2.03958 v -1.42778 -3.69567 -1.42777 h 1.75022 l 3.30651,6.55122 h 2.26258 l -3.29115,-6.55122 3.29115,-1e-5 v -9.35889 z m 2.03958,2.03958 h 5.27973 v 5.27974 h -5.27973 z" />
        <path
           id="path17140"
           style="fill:#f2f2f2;fill-opacity:1;stroke-width:0.353764;stroke-dasharray:none"
           d="m 125.23413,128.92834 v 9.3589 6.55122 h 2.03958 v -1.42778 -3.69567 -1.42777 h 7.31931 v -9.3589 z m 2.03958,2.03958 h 5.27973 v 5.27974 h -5.27973 z" />
        <path
           id="path17142"
           style="fill:#f2f2f2;fill-opacity:1;stroke-width:0.353764;stroke-dasharray:none"
           d="m 146.59774,128.92834 v 9.3589 6.55122 h 0.10438 1.9352 1.93521 5.52906 v -2.03958 h -5.52906 -1.93521 v -4.51164 -7.31932 h 1.93521 5.52906 v -2.03958 h -5.52906 -1.93521 z" />
      </g>
      <path
         id="path17146"
         style="fill:#244aa5;fill-opacity:1;stroke-width:1.00012;stroke-dasharray:none"
         d="m 159.00324,168.17589 c -0.29452,0 -0.95216,0.29775 -1.32206,0.61249 -0.40016,0.34047 -0.65804,0.83085 -0.88304,1.30564 -0.20698,0.43677 -0.3907,0.32813 -0.4152,1.11211 -0.0245,0.78398 -0.0735,0.66939 -0.2695,1.11038 -0.19599,0.44099 0.72916,1.44547 1.07797,2.27845 0.34881,0.83298 -0.28619,0.84453 -1.07797,1.30386 -2.66233,1.54448 -1.37753,1.79757 -1.25286,2.35472 0.12467,0.55714 -0.36968,0.34296 -0.19601,0.90645 0.15436,0.50082 1.37157,1.07909 1.7266,1.66593 -0.0244,0.0104 -0.41305,0.46503 -0.32675,0.93105 0.12249,0.66148 -0.58798,0.4165 -0.44098,0.90649 0.14699,0.48999 -0.93098,1.24947 -1.39646,2.35194 -0.46549,1.10247 -0.49001,1.73945 -0.49001,1.73945 h 0.8085 c 0,0 1.00331,0.0773 1.80963,-0.71366 0.8477,-0.83154 1.02592,0.59204 1.59578,0.71366 0.34306,0.0732 1.05236,0 1.05236,0 0,0 0.70929,0.0732 1.05235,0 0.56986,-0.12162 0.74809,-1.5452 1.59579,-0.71366 0.80631,0.79095 1.80962,0.71366 1.80962,0.71366 h 0.8085 c 0,0 -0.0245,-0.63698 -0.49,-1.73945 -0.46549,-1.10247 -1.54346,-1.86195 -1.39646,-2.35194 0.14699,-0.48999 -0.56348,-0.24501 -0.44098,-0.90649 0.0863,-0.46602 -0.30234,-0.92063 -0.32675,-0.93105 0.35502,-0.58684 1.57223,-1.16511 1.72659,-1.66593 0.17367,-0.56349 -0.32068,-0.34931 -0.19601,-0.90645 0.12468,-0.55715 1.40947,-0.81024 -1.25286,-2.35472 -0.79178,-0.45933 -1.42677,-0.47088 -1.07797,-1.30386 0.34881,-0.83298 1.27397,-1.83746 1.07797,-2.27845 -0.19599,-0.44099 -0.245,-0.3264 -0.2695,-1.11038 -0.0245,-0.78398 -0.20822,-0.67534 -0.4152,-1.11211 -0.22499,-0.47479 -0.48288,-0.96517 -0.88304,-1.30564 -0.3699,-0.31474 -1.02754,-0.61249 -1.32205,-0.61249 z m -2.69582,9.58398 c 0.13598,-0.006 0.38593,0.17383 0.81388,0.67147 0.56669,0.65897 0.52895,1.18641 0.29068,1.5788 -0.007,-0.001 -0.0154,-0.002 -0.025,-0.002 0,0 -0.79582,-0.14197 -1.00401,-0.88094 -0.12223,-0.43386 -0.37468,-1.35251 -0.0755,-1.36682 z m 5.39163,0 c 0.29916,0.0143 0.0467,0.93297 -0.0755,1.36683 -0.20819,0.73897 -1.004,0.88094 -1.004,0.88094 -0.01,0 -0.0176,0.001 -0.025,0.002 -0.23827,-0.3924 -0.27601,-0.91983 0.29068,-1.5788 0.42795,-0.49765 0.6779,-0.67798 0.81388,-0.67147 z" />
    </g>
  </g>
</svg>
